<svg width="307" height="103" viewBox="0 0 307 103" fill="none" xmlns="http://www.w3.org/2000/svg">
<path d="M6.384 14.326V23.18H16.036V26.03H6.384V35.15H17.176V38H2.926V11.476H17.176V14.326H6.384ZM33.2764 38L28.3364 30.248L23.5864 38H19.9764L26.7024 27.664L19.9764 17.176H23.8904L28.8304 24.89L33.5424 17.176H37.1524L30.4644 27.474L37.1904 38H33.2764ZM44.05 21.014C44.734 19.8233 45.7473 18.8353 47.09 18.05C48.458 17.2393 50.0413 16.834 51.84 16.834C53.6893 16.834 55.3613 17.2773 56.856 18.164C58.376 19.0507 59.5667 20.3047 60.428 21.926C61.2893 23.522 61.72 25.384 61.72 27.512C61.72 29.6147 61.2893 31.4893 60.428 33.136C59.5667 34.7827 58.376 36.062 56.856 36.974C55.3613 37.886 53.6893 38.342 51.84 38.342C50.0667 38.342 48.496 37.9493 47.128 37.164C45.7853 36.3533 44.7593 35.3527 44.05 34.162V47.88H40.592V17.176H44.05V21.014ZM58.186 27.512C58.186 25.9413 57.8694 24.5733 57.236 23.408C56.6027 22.2427 55.7413 21.356 54.652 20.748C53.588 20.14 52.41 19.836 51.118 19.836C49.8513 19.836 48.6733 20.1527 47.584 20.786C46.52 21.394 45.6587 22.2933 45 23.484C44.3667 24.6493 44.05 26.0047 44.05 27.55C44.05 29.1207 44.3667 30.5013 45 31.692C45.6587 32.8573 46.52 33.7567 47.584 34.39C48.6733 34.998 49.8513 35.302 51.118 35.302C52.41 35.302 53.588 34.998 54.652 34.39C55.7413 33.7567 56.6027 32.8573 57.236 31.692C57.8694 30.5013 58.186 29.108 58.186 27.512ZM69.7297 9.88V38H66.2717V9.88H69.7297ZM84.7053 38.342C82.7546 38.342 80.9813 37.8987 79.3853 37.012C77.8146 36.1253 76.5733 34.8713 75.6613 33.25C74.7746 31.6033 74.3313 29.7033 74.3313 27.55C74.3313 25.422 74.7873 23.5473 75.6993 21.926C76.6366 20.2793 77.9033 19.0253 79.4993 18.164C81.0953 17.2773 82.8813 16.834 84.8573 16.834C86.8333 16.834 88.6193 17.2773 90.2153 18.164C91.8113 19.0253 93.0653 20.2667 93.9773 21.888C94.9146 23.5093 95.3833 25.3967 95.3833 27.55C95.3833 29.7033 94.9019 31.6033 93.9393 33.25C93.0019 34.8713 91.7226 36.1253 90.1013 37.012C88.4799 37.8987 86.6813 38.342 84.7053 38.342ZM84.7053 35.302C85.9466 35.302 87.1119 35.0107 88.2013 34.428C89.2906 33.8453 90.1646 32.9713 90.8233 31.806C91.5073 30.6407 91.8493 29.222 91.8493 27.55C91.8493 25.878 91.5199 24.4593 90.8613 23.294C90.2026 22.1287 89.3413 21.2673 88.2773 20.71C87.2133 20.1273 86.0606 19.836 84.8193 19.836C83.5526 19.836 82.3873 20.1273 81.3233 20.71C80.2846 21.2673 79.4486 22.1287 78.8153 23.294C78.1819 24.4593 77.8653 25.878 77.8653 27.55C77.8653 29.2473 78.1693 30.6787 78.7773 31.844C79.4106 33.0093 80.2466 33.8833 81.2853 34.466C82.3239 35.0233 83.4639 35.302 84.7053 35.302ZM103.388 20.558C103.996 19.3673 104.857 18.4427 105.972 17.784C107.112 17.1253 108.493 16.796 110.114 16.796V20.368H109.202C105.326 20.368 103.388 22.4707 103.388 26.676V38H99.9299V17.176H103.388V20.558ZM133.106 26.79C133.106 27.4487 133.068 28.1453 132.992 28.88H116.348C116.474 30.932 117.171 32.5407 118.438 33.706C119.73 34.846 121.288 35.416 123.112 35.416C124.606 35.416 125.848 35.074 126.836 34.39C127.849 33.6807 128.558 32.7433 128.964 31.578H132.688C132.13 33.5793 131.016 35.2133 129.344 36.48C127.672 37.7213 125.594 38.342 123.112 38.342C121.136 38.342 119.362 37.8987 117.792 37.012C116.246 36.1253 115.03 34.8713 114.144 33.25C113.257 31.6033 112.814 29.7033 112.814 27.55C112.814 25.3967 113.244 23.5093 114.106 21.888C114.967 20.2667 116.17 19.0253 117.716 18.164C119.286 17.2773 121.085 16.834 123.112 16.834C125.088 16.834 126.836 17.2647 128.356 18.126C129.876 18.9873 131.041 20.178 131.852 21.698C132.688 23.1927 133.106 24.89 133.106 26.79ZM129.534 26.068C129.534 24.7507 129.242 23.6233 128.66 22.686C128.077 21.7233 127.279 21.0013 126.266 20.52C125.278 20.0133 124.176 19.76 122.96 19.76C121.212 19.76 119.717 20.3173 118.476 21.432C117.26 22.5467 116.563 24.092 116.386 26.068H129.534ZM152.019 20.026V32.3C152.019 33.3133 152.234 34.0353 152.665 34.466C153.096 34.8713 153.843 35.074 154.907 35.074H157.453V38H154.337C152.412 38 150.968 37.5567 150.005 36.67C149.042 35.7833 148.561 34.3267 148.561 32.3V20.026H145.863V17.176H148.561V11.932H152.019V17.176H157.453V20.026H152.019ZM171.979 16.796C173.549 16.796 174.968 17.138 176.235 17.822C177.501 18.4807 178.489 19.4813 179.199 20.824C179.933 22.1667 180.301 23.8007 180.301 25.726V38H176.881V26.22C176.881 24.1427 176.361 22.5593 175.323 21.47C174.284 20.3553 172.865 19.798 171.067 19.798C169.243 19.798 167.786 20.368 166.697 21.508C165.633 22.648 165.101 24.3073 165.101 26.486V38H161.643V9.88H165.101V20.14C165.785 19.076 166.722 18.2527 167.913 17.67C169.129 17.0873 170.484 16.796 171.979 16.796ZM204.949 26.79C204.949 27.4487 204.911 28.1453 204.835 28.88H188.191C188.318 30.932 189.015 32.5407 190.281 33.706C191.573 34.846 193.131 35.416 194.955 35.416C196.45 35.416 197.691 35.074 198.679 34.39C199.693 33.6807 200.402 32.7433 200.807 31.578H204.531C203.974 33.5793 202.859 35.2133 201.187 36.48C199.515 37.7213 197.438 38.342 194.955 38.342C192.979 38.342 191.206 37.8987 189.635 37.012C188.09 36.1253 186.874 34.8713 185.987 33.25C185.101 31.6033 184.657 29.7033 184.657 27.55C184.657 25.3967 185.088 23.5093 185.949 21.888C186.811 20.2667 188.014 19.0253 189.559 18.164C191.13 17.2773 192.929 16.834 194.955 16.834C196.931 16.834 198.679 17.2647 200.199 18.126C201.719 18.9873 202.885 20.178 203.695 21.698C204.531 23.1927 204.949 24.89 204.949 26.79ZM201.377 26.068C201.377 24.7507 201.086 23.6233 200.503 22.686C199.921 21.7233 199.123 21.0013 198.109 20.52C197.121 20.0133 196.019 19.76 194.803 19.76C193.055 19.76 191.561 20.3173 190.319 21.432C189.103 22.5467 188.407 24.092 188.229 26.068H201.377Z" fill="#2E323E"/>
<path d="M17.67 74.396C19.1647 74.6747 20.3933 75.422 21.356 76.638C22.3187 77.854 22.8 79.2473 22.8 80.818C22.8 82.2367 22.4453 83.4907 21.736 84.58C21.052 85.644 20.0513 86.48 18.734 87.088C17.4167 87.696 15.8587 88 14.06 88H2.622V61.476H13.566C15.3647 61.476 16.91 61.7673 18.202 62.35C19.5193 62.9327 20.5073 63.7433 21.166 64.782C21.85 65.8207 22.192 66.9987 22.192 68.316C22.192 69.8613 21.774 71.1533 20.938 72.192C20.1273 73.2307 19.038 73.9653 17.67 74.396ZM7.942 72.42H12.806C14.0727 72.42 15.048 72.1413 15.732 71.584C16.416 71.0013 16.758 70.178 16.758 69.114C16.758 68.05 16.416 67.2267 15.732 66.644C15.048 66.0613 14.0727 65.77 12.806 65.77H7.942V72.42ZM13.3 83.668C14.592 83.668 15.5927 83.364 16.302 82.756C17.0367 82.148 17.404 81.2867 17.404 80.172C17.404 79.032 17.024 78.1453 16.264 77.512C15.504 76.8533 14.478 76.524 13.186 76.524H7.942V83.668H13.3ZM46.61 77.018C46.61 77.778 46.5593 78.462 46.458 79.07H31.068C31.1946 80.59 31.7266 81.7807 32.664 82.642C33.6013 83.5033 34.754 83.934 36.122 83.934C38.098 83.934 39.504 83.0853 40.34 81.388H46.078C45.47 83.4147 44.3046 85.0867 42.582 86.404C40.8593 87.696 38.744 88.342 36.236 88.342C34.2093 88.342 32.3853 87.8987 30.764 87.012C29.168 86.1 27.914 84.8207 27.002 83.174C26.1153 81.5273 25.672 79.6273 25.672 77.474C25.672 75.2953 26.1153 73.3827 27.002 71.736C27.8886 70.0893 29.13 68.8227 30.726 67.936C32.322 67.0493 34.1586 66.606 36.236 66.606C38.2373 66.606 40.0233 67.0367 41.594 67.898C43.19 68.7593 44.4186 69.988 45.28 71.584C46.1666 73.1547 46.61 74.966 46.61 77.018ZM41.1 75.498C41.0746 74.13 40.5806 73.0407 39.618 72.23C38.6553 71.394 37.4773 70.976 36.084 70.976C34.7666 70.976 33.652 71.3813 32.74 72.192C31.8533 72.9773 31.3086 74.0793 31.106 75.498H41.1ZM49.1251 77.398C49.1251 75.27 49.5431 73.3827 50.3791 71.736C51.2404 70.0893 52.3931 68.8227 53.8371 67.936C55.3064 67.0493 56.9404 66.606 58.7391 66.606C60.3098 66.606 61.6778 66.9227 62.8431 67.556C64.0338 68.1893 64.9838 68.9873 65.6931 69.95V66.948H71.0511V88H65.6931V84.922C65.0091 85.91 64.0591 86.7333 62.8431 87.392C61.6524 88.0253 60.2718 88.342 58.7011 88.342C56.9278 88.342 55.3064 87.886 53.8371 86.974C52.3931 86.062 51.2404 84.7827 50.3791 83.136C49.5431 81.464 49.1251 79.5513 49.1251 77.398ZM65.6931 77.474C65.6931 76.182 65.4398 75.08 64.9331 74.168C64.4264 73.2307 63.7424 72.5213 62.8811 72.04C62.0198 71.5333 61.0951 71.28 60.1071 71.28C59.1191 71.28 58.2071 71.5207 57.3711 72.002C56.5351 72.4833 55.8511 73.1927 55.3191 74.13C54.8124 75.042 54.5591 76.1313 54.5591 77.398C54.5591 78.6647 54.8124 79.7793 55.3191 80.742C55.8511 81.6793 56.5351 82.4013 57.3711 82.908C58.2324 83.4147 59.1444 83.668 60.1071 83.668C61.0951 83.668 62.0198 83.4273 62.8811 82.946C63.7424 82.4393 64.4264 81.73 64.9331 80.818C65.4398 79.8807 65.6931 78.766 65.6931 77.474ZM96.121 66.948V88H90.763V85.34C90.079 86.252 89.1797 86.974 88.065 87.506C86.9757 88.0127 85.785 88.266 84.493 88.266C82.8463 88.266 81.3897 87.924 80.123 87.24C78.8563 86.5307 77.8557 85.5047 77.121 84.162C76.4117 82.794 76.057 81.1727 76.057 79.298V66.948H81.377V78.538C81.377 80.21 81.795 81.502 82.631 82.414C83.467 83.3007 84.607 83.744 86.051 83.744C87.5203 83.744 88.673 83.3007 89.509 82.414C90.345 81.502 90.763 80.21 90.763 78.538V66.948H96.121ZM107.564 71.318V81.502C107.564 82.2113 107.729 82.7307 108.058 83.06C108.413 83.364 108.995 83.516 109.806 83.516H112.276V88H108.932C104.448 88 102.206 85.8213 102.206 81.464V71.318H99.698V66.948H102.206V61.742H107.564V66.948H112.276V71.318H107.564ZM118.8 64.44C117.863 64.44 117.078 64.1487 116.444 63.566C115.836 62.958 115.532 62.2107 115.532 61.324C115.532 60.4373 115.836 59.7027 116.444 59.12C117.078 58.512 117.863 58.208 118.8 58.208C119.738 58.208 120.51 58.512 121.118 59.12C121.752 59.7027 122.068 60.4373 122.068 61.324C122.068 62.2107 121.752 62.958 121.118 63.566C120.51 64.1487 119.738 64.44 118.8 64.44ZM121.422 66.948V88H116.102V66.948H121.422ZM136.331 71.318H132.645V88H127.249V71.318H124.855V66.948H127.249V65.884C127.249 63.3 127.983 61.4 129.453 60.184C130.922 58.968 133.139 58.398 136.103 58.474V62.958C134.811 62.9327 133.911 63.148 133.405 63.604C132.898 64.06 132.645 64.8833 132.645 66.074V66.948H136.331V71.318ZM159.652 66.948V88H154.294V85.34C153.61 86.252 152.711 86.974 151.596 87.506C150.507 88.0127 149.316 88.266 148.024 88.266C146.378 88.266 144.921 87.924 143.654 87.24C142.388 86.5307 141.387 85.5047 140.652 84.162C139.943 82.794 139.588 81.1727 139.588 79.298V66.948H144.908V78.538C144.908 80.21 145.326 81.502 146.162 82.414C146.998 83.3007 148.138 83.744 149.582 83.744C151.052 83.744 152.204 83.3007 153.04 82.414C153.876 81.502 154.294 80.21 154.294 78.538V66.948H159.652ZM170.221 59.88V88H164.901V59.88H170.221Z" fill="#1B1E28"/>
<path d="M213.716 66.948L207.56 88H201.822L197.984 73.294L194.146 88H188.37L182.176 66.948H187.572L191.296 82.984L195.324 66.948H200.948L204.9 82.946L208.624 66.948H213.716ZM225.943 88.342C223.916 88.342 222.092 87.8987 220.471 87.012C218.849 86.1 217.57 84.8207 216.633 83.174C215.721 81.5273 215.265 79.6273 215.265 77.474C215.265 75.3207 215.733 73.4207 216.671 71.774C217.633 70.1273 218.938 68.8607 220.585 67.974C222.231 67.062 224.068 66.606 226.095 66.606C228.121 66.606 229.958 67.062 231.605 67.974C233.251 68.8607 234.543 70.1273 235.481 71.774C236.443 73.4207 236.925 75.3207 236.925 77.474C236.925 79.6273 236.431 81.5273 235.443 83.174C234.48 84.8207 233.163 86.1 231.491 87.012C229.844 87.8987 227.995 88.342 225.943 88.342ZM225.943 83.706C226.905 83.706 227.805 83.478 228.641 83.022C229.502 82.5407 230.186 81.8313 230.693 80.894C231.199 79.9567 231.453 78.8167 231.453 77.474C231.453 75.4727 230.921 73.94 229.857 72.876C228.818 71.7867 227.539 71.242 226.019 71.242C224.499 71.242 223.219 71.7867 222.181 72.876C221.167 73.94 220.661 75.4727 220.661 77.474C220.661 79.4753 221.155 81.0207 222.143 82.11C223.156 83.174 224.423 83.706 225.943 83.706ZM246.147 70.216C246.831 69.1013 247.718 68.2273 248.807 67.594C249.922 66.9607 251.188 66.644 252.607 66.644V72.23H251.201C249.529 72.23 248.262 72.6227 247.401 73.408C246.565 74.1933 246.147 75.5613 246.147 77.512V88H240.827V66.948H246.147V70.216ZM261.51 59.88V88H256.19V59.88H261.51ZM265.399 77.398C265.399 75.27 265.817 73.3827 266.653 71.736C267.514 70.0893 268.679 68.8227 270.149 67.936C271.618 67.0493 273.252 66.606 275.051 66.606C276.419 66.606 277.723 66.91 278.965 67.518C280.206 68.1007 281.194 68.886 281.929 69.874V59.88H287.325V88H281.929V84.884C281.27 85.9227 280.345 86.7587 279.155 87.392C277.964 88.0253 276.583 88.342 275.013 88.342C273.239 88.342 271.618 87.886 270.149 86.974C268.679 86.062 267.514 84.7827 266.653 83.136C265.817 81.464 265.399 79.5513 265.399 77.398ZM281.967 77.474C281.967 76.182 281.713 75.08 281.207 74.168C280.7 73.2307 280.016 72.5213 279.155 72.04C278.293 71.5333 277.369 71.28 276.381 71.28C275.393 71.28 274.481 71.5207 273.645 72.002C272.809 72.4833 272.125 73.1927 271.593 74.13C271.086 75.042 270.833 76.1313 270.833 77.398C270.833 78.6647 271.086 79.7793 271.593 80.742C272.125 81.6793 272.809 82.4013 273.645 82.908C274.506 83.4147 275.418 83.668 276.381 83.668C277.369 83.668 278.293 83.4273 279.155 82.946C280.016 82.4393 280.7 81.73 281.207 80.818C281.713 79.8807 281.967 78.766 281.967 77.474ZM299.398 61.02L298.79 79.374H294.306L293.66 61.02H299.398ZM296.662 88.266C295.7 88.266 294.902 87.9747 294.268 87.392C293.66 86.784 293.356 86.0367 293.356 85.15C293.356 84.2633 293.66 83.5287 294.268 82.946C294.902 82.338 295.7 82.034 296.662 82.034C297.6 82.034 298.372 82.338 298.98 82.946C299.588 83.5287 299.892 84.2633 299.892 85.15C299.892 86.0367 299.588 86.784 298.98 87.392C298.372 87.9747 297.6 88.266 296.662 88.266Z" fill="#FF7029"/>
<path d="M192 102.54C202.659 94.6095 250.659 84.6511 290.924 102.092C268.659 96.6012 223.159 92.6178 192 102.54Z" fill="#FF7029"/>
</svg>
